<svg width="210" height="280" viewBox="0 0 210 280" fill="none" xmlns="http://www.w3.org/2000/svg">
  <rect x="70" y="15" width="70" height="28" rx="10" fill="#C8D2E2"/>
  <rect x="56" y="37" width="98" height="211" rx="20" fill="url(#paint0_linear_1_2)"/>
  <rect x="64" y="73" width="82" height="116" rx="10" fill="#F5FAFF"/>
  <path d="M79 157C93 132 116 131 129 147C117 150 104 163 92 178C85 173 81 166 79 157Z" fill="#9BC4E9"/>
  <circle cx="120" cy="122" r="7" fill="#2E639B"/>
  <rect x="68" y="196" width="74" height="30" rx="8" fill="#EFF5FC"/>
  <rect x="75" y="202" width="60" height="4" rx="2" fill="#B7C8DE"/>
  <rect x="75" y="210" width="46" height="4" rx="2" fill="#B7C8DE"/>
  <rect x="75" y="218" width="51" height="4" rx="2" fill="#B7C8DE"/>
  <defs>
    <linearGradient id="paint0_linear_1_2" x1="105" y1="37" x2="105" y2="248" gradientUnits="userSpaceOnUse">
      <stop stop-color="#E4EEF8"/>
      <stop offset="1" stop-color="#F7FBFF"/>
    </linearGradient>
  </defs>
</svg>
